<svg xmlns="http://www.w3.org/2000/svg" viewBox="0 0 100 100" preserveAspectRatio="xMidYMid" width="268" height="268" style="shape-rendering: auto; display: block; background: transparent;" xmlns:xlink="http://www.w3.org/1999/xlink"><g><g transform="rotate(0 50 50)">
  <rect fill="#50d514" height="9" width="1" ry="1.8900000000000001" rx="0.5" y="24.5" x="49.5">
    <animate repeatCount="indefinite" begin="-0.8712121212121211s" dur="0.9090909090909091s" keyTimes="0;1" values="1;0" attributeName="opacity"></animate>
  </rect>
</g><g transform="rotate(15 50 50)">
  <rect fill="#50d514" height="9" width="1" ry="1.8900000000000001" rx="0.5" y="24.5" x="49.5">
    <animate repeatCount="indefinite" begin="-0.8333333333333333s" dur="0.9090909090909091s" keyTimes="0;1" values="1;0" attributeName="opacity"></animate>
  </rect>
</g><g transform="rotate(30 50 50)">
  <rect fill="#50d514" height="9" width="1" ry="1.8900000000000001" rx="0.5" y="24.5" x="49.5">
    <animate repeatCount="indefinite" begin="-0.7954545454545454s" dur="0.9090909090909091s" keyTimes="0;1" values="1;0" attributeName="opacity"></animate>
  </rect>
</g><g transform="rotate(45 50 50)">
  <rect fill="#50d514" height="9" width="1" ry="1.8900000000000001" rx="0.5" y="24.5" x="49.5">
    <animate repeatCount="indefinite" begin="-0.7575757575757576s" dur="0.9090909090909091s" keyTimes="0;1" values="1;0" attributeName="opacity"></animate>
  </rect>
</g><g transform="rotate(60 50 50)">
  <rect fill="#50d514" height="9" width="1" ry="1.8900000000000001" rx="0.5" y="24.5" x="49.5">
    <animate repeatCount="indefinite" begin="-0.7196969696969696s" dur="0.9090909090909091s" keyTimes="0;1" values="1;0" attributeName="opacity"></animate>
  </rect>
</g><g transform="rotate(75 50 50)">
  <rect fill="#50d514" height="9" width="1" ry="1.8900000000000001" rx="0.5" y="24.5" x="49.5">
    <animate repeatCount="indefinite" begin="-0.6818181818181818s" dur="0.9090909090909091s" keyTimes="0;1" values="1;0" attributeName="opacity"></animate>
  </rect>
</g><g transform="rotate(90 50 50)">
  <rect fill="#50d514" height="9" width="1" ry="1.8900000000000001" rx="0.5" y="24.5" x="49.5">
    <animate repeatCount="indefinite" begin="-0.6439393939393939s" dur="0.9090909090909091s" keyTimes="0;1" values="1;0" attributeName="opacity"></animate>
  </rect>
</g><g transform="rotate(105 50 50)">
  <rect fill="#50d514" height="9" width="1" ry="1.8900000000000001" rx="0.5" y="24.5" x="49.5">
    <animate repeatCount="indefinite" begin="-0.606060606060606s" dur="0.9090909090909091s" keyTimes="0;1" values="1;0" attributeName="opacity"></animate>
  </rect>
</g><g transform="rotate(120 50 50)">
  <rect fill="#50d514" height="9" width="1" ry="1.8900000000000001" rx="0.5" y="24.5" x="49.5">
    <animate repeatCount="indefinite" begin="-0.5681818181818181s" dur="0.9090909090909091s" keyTimes="0;1" values="1;0" attributeName="opacity"></animate>
  </rect>
</g><g transform="rotate(135 50 50)">
  <rect fill="#50d514" height="9" width="1" ry="1.8900000000000001" rx="0.5" y="24.5" x="49.5">
    <animate repeatCount="indefinite" begin="-0.5303030303030303s" dur="0.9090909090909091s" keyTimes="0;1" values="1;0" attributeName="opacity"></animate>
  </rect>
</g><g transform="rotate(150 50 50)">
  <rect fill="#50d514" height="9" width="1" ry="1.8900000000000001" rx="0.5" y="24.5" x="49.5">
    <animate repeatCount="indefinite" begin="-0.4924242424242424s" dur="0.9090909090909091s" keyTimes="0;1" values="1;0" attributeName="opacity"></animate>
  </rect>
</g><g transform="rotate(165 50 50)">
  <rect fill="#50d514" height="9" width="1" ry="1.8900000000000001" rx="0.5" y="24.5" x="49.5">
    <animate repeatCount="indefinite" begin="-0.45454545454545453s" dur="0.9090909090909091s" keyTimes="0;1" values="1;0" attributeName="opacity"></animate>
  </rect>
</g><g transform="rotate(180 50 50)">
  <rect fill="#50d514" height="9" width="1" ry="1.8900000000000001" rx="0.5" y="24.5" x="49.5">
    <animate repeatCount="indefinite" begin="-0.41666666666666663s" dur="0.9090909090909091s" keyTimes="0;1" values="1;0" attributeName="opacity"></animate>
  </rect>
</g><g transform="rotate(195 50 50)">
  <rect fill="#50d514" height="9" width="1" ry="1.8900000000000001" rx="0.5" y="24.5" x="49.5">
    <animate repeatCount="indefinite" begin="-0.3787878787878788s" dur="0.9090909090909091s" keyTimes="0;1" values="1;0" attributeName="opacity"></animate>
  </rect>
</g><g transform="rotate(210 50 50)">
  <rect fill="#50d514" height="9" width="1" ry="1.8900000000000001" rx="0.5" y="24.5" x="49.5">
    <animate repeatCount="indefinite" begin="-0.3409090909090909s" dur="0.9090909090909091s" keyTimes="0;1" values="1;0" attributeName="opacity"></animate>
  </rect>
</g><g transform="rotate(225 50 50)">
  <rect fill="#50d514" height="9" width="1" ry="1.8900000000000001" rx="0.5" y="24.5" x="49.5">
    <animate repeatCount="indefinite" begin="-0.303030303030303s" dur="0.9090909090909091s" keyTimes="0;1" values="1;0" attributeName="opacity"></animate>
  </rect>
</g><g transform="rotate(240 50 50)">
  <rect fill="#50d514" height="9" width="1" ry="1.8900000000000001" rx="0.5" y="24.5" x="49.5">
    <animate repeatCount="indefinite" begin="-0.26515151515151514s" dur="0.9090909090909091s" keyTimes="0;1" values="1;0" attributeName="opacity"></animate>
  </rect>
</g><g transform="rotate(255 50 50)">
  <rect fill="#50d514" height="9" width="1" ry="1.8900000000000001" rx="0.5" y="24.5" x="49.5">
    <animate repeatCount="indefinite" begin="-0.22727272727272727s" dur="0.9090909090909091s" keyTimes="0;1" values="1;0" attributeName="opacity"></animate>
  </rect>
</g><g transform="rotate(270 50 50)">
  <rect fill="#50d514" height="9" width="1" ry="1.8900000000000001" rx="0.5" y="24.5" x="49.5">
    <animate repeatCount="indefinite" begin="-0.1893939393939394s" dur="0.9090909090909091s" keyTimes="0;1" values="1;0" attributeName="opacity"></animate>
  </rect>
</g><g transform="rotate(285 50 50)">
  <rect fill="#50d514" height="9" width="1" ry="1.8900000000000001" rx="0.5" y="24.5" x="49.5">
    <animate repeatCount="indefinite" begin="-0.1515151515151515s" dur="0.9090909090909091s" keyTimes="0;1" values="1;0" attributeName="opacity"></animate>
  </rect>
</g><g transform="rotate(300 50 50)">
  <rect fill="#50d514" height="9" width="1" ry="1.8900000000000001" rx="0.5" y="24.5" x="49.5">
    <animate repeatCount="indefinite" begin="-0.11363636363636363s" dur="0.9090909090909091s" keyTimes="0;1" values="1;0" attributeName="opacity"></animate>
  </rect>
</g><g transform="rotate(315 50 50)">
  <rect fill="#50d514" height="9" width="1" ry="1.8900000000000001" rx="0.5" y="24.5" x="49.5">
    <animate repeatCount="indefinite" begin="-0.07575757575757575s" dur="0.9090909090909091s" keyTimes="0;1" values="1;0" attributeName="opacity"></animate>
  </rect>
</g><g transform="rotate(330 50 50)">
  <rect fill="#50d514" height="9" width="1" ry="1.8900000000000001" rx="0.5" y="24.5" x="49.5">
    <animate repeatCount="indefinite" begin="-0.03787878787878787s" dur="0.9090909090909091s" keyTimes="0;1" values="1;0" attributeName="opacity"></animate>
  </rect>
</g><g transform="rotate(345 50 50)">
  <rect fill="#50d514" height="9" width="1" ry="1.8900000000000001" rx="0.5" y="24.5" x="49.5">
    <animate repeatCount="indefinite" begin="0s" dur="0.9090909090909091s" keyTimes="0;1" values="1;0" attributeName="opacity"></animate>
  </rect>
</g><g></g></g><!-- [ldio] generated by https://loading.io --></svg>